PathFileType	4	(X/Y/Z)	C:/Users/beibeiliu/ov580/test_trc/User2\sequence.23_training_dense_right.trc
DataRate	CameraRate	NumFrames	NumMarkers	Units	OrigDataRate	OrigDataStartFrame	OrigNumFrames
120	120	22	19	mm	120	161	257
Frame#	Time	ThumbCMC			ThumbMCP			ThumbIP			ThumbTip			IndexMCP			IndexPIP			IndexTip			MiddleMCP			MiddlePIP			MiddleTip			RingMCP			RingPIP			RingTip			PinkyMCP			PinkyPIP			PinkyTip			BackHand1			BackHand2			BackHand3	
		X0	Y0	Z0	X1	Y1	Z1	X2	Y2	Z2	X3	Y3	Z3	X4	Y4	Z4	X5	Y5	Z5	X6	Y6	Z6	X7	Y7	Z7	X8	Y8	Z8	X9	Y9	Z9	X10	Y10	Z10	X11	Y11	Z11	X12	Y12	Z12	X13	Y13	Z13	X14	Y14	Z14	X15	Y15	Z15	X16	Y16	Z16	X17	Y17	Z17	X18	Y18	Z18	
160	1.33333	54.5714	-40.5821	91.1332	34.6952	-48.9604	60.2365	35.8652	-54.656	23.7494	50.614	-60.8253	-2.03289	52.1368	-15.1334	15.8284	43.2582	-23.9318	-7.20947	32.2095	-35.8	-36.3946	76.4344	-27.3131	2.18211	67.53	-39.6968	-25.675	63.6129	-53.4036	-49.4409	83.0717	-60.3707	8.62867	63.7906	-83.9593	14.1571	55.4381	-89.3776	50.1032	98.3108	-75.6686	22.8857	73.1717	-86.5752	37.8252	73.4669	-71.8222	65.7222	114.921	-31.5829	63.4901	122.332	-35.9714	92.7256	85.2047	-16.402	87.2234	
161	1.34167	52.3447	-42.5878	93.1253	36.037	-52.5847	58.2011	39.8559	-61.1154	20.9655	49.1046	-70.7347	2.02653	55.2381	-23.0724	12.8999	46.5818	-34.9333	-11.716	34.0733	-50.0863	-37.9164	77.8416	-36.7349	0.0743191	74.5434	-53.1037	-23.0689	63.0512	-65.7737	-50.3369	85.7655	-69.9561	11.5447	65.3966	-94.4695	18.4979	55.7117	-96.1489	50.5997	97.6954	-83.2226	25.1462	75.4488	-97.2766	43.4313	74.5962	-78.8147	70.2214	112.95	-35.2013	58.9264	121.371	-37.3844	96.9683	86.6466	-18.2075	85.1159	
162	1.35	51.8527	-43.5951	90.6244	33.3849	-56.761	59.5449	38.0359	-69.6351	26.6178	48.7686	-82.0556	6.24999	55.6537	-34.8679	12.2701	46.3189	-48.0449	-11.7446	32.6262	-61.4976	-32.3244	78.5428	-49.7937	-0.194554	70.0221	-65.138	-23.3995	60.5827	-85.2603	-50.5777	82.3828	-80.0983	14.194	63.3662	-102.848	23.2099	55.017	-97.8268	60.5497	101.066	-93.0798	29.4562	73.3402	-103.189	48.8591	73.9113	-81.2636	74.0576	115.262	-43.6955	56.0215	122.488	-39.8004	93.1837	83.1137	-22.6179	78.5004	
163	1.35833	48.0892	-45.1196	93.2482	33.8557	-61.0074	59.86	38.2857	-78.328	28.396	46.7843	-92.2695	9.13367	48.7278	-44.835	7.41124	41.882	-59.2693	-11.5513	31.8498	-78.3586	-34.8966	75.0343	-57.9901	1.4872	69.8641	-80.4961	-20.5117	57.6755	-98.8928	-41.631	82.5006	-90.5493	17.6193	64.0735	-113.302	32.1383	56.4224	-105.105	65.1528	95.583	-100.058	34.063	71.5236	-108.114	54.833	71.3527	-84.8057	80.5876	111.973	-46.3256	57.6679	119.911	-40.6648	90.2362	83.7188	-26.7427	80.3398	
164	1.36667	49.9885	-48.1091	92.3987	31.8311	-65.2634	62.9934	35.8707	-83.5122	29.4015	44.6864	-98.3198	14.8169	52.543	-50.8219	9.11266	37.5493	-66.3438	-12.7158	29.4056	-83.1373	-29.8502	72.7497	-66.7991	1.5827	64.4305	-87.9163	-18.6151	56.5024	-111.693	-40.4768	80.4488	-96.4079	20.645	62.8196	-116.7	37.2041	56.8872	-103.21	71.3331	95.4975	-104.848	36.9971	74.1395	-116.113	61.5484	72.2416	-88.3531	85.6915	113.379	-50.8269	57.6237	120.206	-43.7532	94.4999	83.253	-29.5194	79.7507	
165	1.375	50.1486	-49.1694	94.6923	31.3192	-68.1218	64.1331	33.7934	-86.8611	28.7406	46.1688	-101.523	13.3579	49.2085	-51.8365	11.4114	38.0067	-68.9519	-12.5506	28.4541	-85.5735	-29.3001	77.6905	-69.7792	5.13907	66.373	-93.443	-19.0254	58.4782	-115.457	-39.1464	83.062	-99.3127	22.0813	62.0248	-116.403	35.6886	60.7375	-102.853	71.7754	90.1895	-106.149	38.381	71.9854	-115.066	60.1116	72.9051	-91.9345	87.4084	111.11	-50.7127	60.9283	119.245	-45.9616	91.6953	82.6783	-30.9516	78.3812	
166	1.38333	49.2569	-50.4734	90.5178	33.0164	-68.9175	63.7652	30.632	-87.0032	34.4532	42.4659	-100.839	15.9877	51.9154	-54.057	10.5261	39.3556	-70.2762	-12.0406	27.8138	-86.7506	-29.9536	72.742	-68.8847	2.00093	62.7815	-90.0492	-19.1836	53.0106	-114.739	-40.7291	81.6952	-97.48	21.3046	63.6895	-118.86	39.4226	60.7761	-100.689	69.8732	93.616	-103.037	37.7309	72.4053	-116.596	61.7008	70.2949	-91.8149	81.2874	107.845	-52.7485	57.7012	116.987	-46.5464	90.5452	82.2532	-29.6859	77.9801	
167	1.39167	46.1109	-49.1353	94.0118	31.5015	-67.4613	66.2232	32.4282	-85.4344	29.6897	41.9243	-100.445	15.4655	46.408	-50.1474	10.6115	37.3026	-65.0207	-8.66763	27.9511	-87.8497	-31.1268	71.3393	-65.8646	3.13242	64.1241	-87.5887	-16.7737	55.748	-113.386	-40.526	81.1344	-96.301	21.3675	59.6351	-116.437	38.9043	61.7639	-98.4833	69.339	93.4699	-105.674	38.4251	69.9717	-113.933	59.308	71.2663	-91.0566	82.4627	108.368	-53.2208	57.9069	118.496	-45.1397	92.572	83.6667	-29.3266	77.8072	
168	1.4	45.0089	-48.1526	96.9625	33.4027	-66.0597	66.0945	33.5464	-81.9484	35.3986	43.3931	-95.3869	15.1297	46.9163	-47	14.3641	37.7216	-65.2554	-10.499	27.5669	-82.1929	-29.2529	71.6133	-61.7664	5.00921	63.1753	-82.5069	-17.0076	56.0244	-107.338	-38.4652	81.3012	-95.1849	21.209	59.9938	-115.324	40.9989	60.3613	-91.5369	69.2352	90.7765	-107.149	37.9535	67.647	-110.318	59.832	68.9076	-90.0287	83.7829	109.643	-50.0801	59.4419	115.611	-42.634	90.2086	83.643	-29.4862	81.5939	
169	1.40833	46.6713	-46.8323	96.9067	29.6721	-62.6568	65.6033	31.5254	-78.1091	34.4968	39.8177	-92.6115	9.57107	48.0729	-47.4105	9.92138	36.5733	-58.7391	-7.52961	26.1184	-74.7478	-28.2124	70.6894	-57.5587	4.4001	60.4503	-78.6878	-21.1957	53.3673	-101.097	-42.4937	78.6028	-89.7069	20.5909	58.5344	-110.455	38.885	60.4474	-87.6449	68.1944	89.7112	-103.223	36.0308	69.8966	-111.063	57.0169	68.3424	-84.086	81.7423	109.864	-47.5857	57.3288	113.596	-41.7356	95.8257	81.988	-28.2516	82.8886	
170	1.41667	47.6274	-46.2532	93.3668	27.9758	-60.997	64.8007	31.2853	-74.6551	28.4786	41.9468	-86.9775	12.2555	47.2561	-40.4675	13.9756	37.2271	-53.5696	-6.64795	25.2105	-71.8237	-33.1093	72.0207	-54.9381	3.90015	58.9296	-73.4224	-22.5377	52.8285	-95.7567	-45.0051	76.0836	-83.9659	18.7501	59.8715	-106.071	32.646	61.2851	-87.1368	67.4854	89.7464	-96.2118	33.1543	66.6021	-105.195	56.9639	70.9215	-82.776	82.4825	107.824	-46.209	57.4418	114.174	-39.685	93.8089	82.6123	-27.1071	84.1843	
171	1.425	44.1985	-43.8794	94.2954	30.8448	-57.4815	66.7556	34.5068	-69.1982	30.2551	42.1904	-80.0564	9.32746	44.5168	-34.7024	13.5577	35.1081	-47.4414	-8.31929	23.965	-62.8412	-31.5054	68.8773	-48.7424	1.5501	61.2692	-66.9083	-22.8746	52.585	-85.6209	-47.3681	79.3579	-79.1739	17.7766	57.1623	-100.114	32.563	61.5577	-83.6059	66.6514	87.9736	-92.2416	29.9961	67.8532	-102.907	51.435	69.1642	-78.6596	79.6965	105.671	-40.5459	60.1247	114.513	-38.828	92.2627	78.7159	-21.1597	86.2283	
172	1.43333	46.4619	-42.1872	94.8159	29.9589	-53.6811	65.8026	29.203	-63.6479	27.8872	42.2993	-72.1426	6.05421	41.9907	-26.4524	17.1038	28.9925	-38.7542	-7.39733	20.1638	-53.0206	-32.6549	64.9129	-38.6012	3.31424	54.5018	-55.2067	-23.8193	50.2437	-74.8093	-46.5906	74.7597	-72.6853	14.6473	59.2527	-95.8095	26.0712	56.316	-81.2283	61.2603	92.4746	-85.7063	29.1127	67.3905	-99.2489	51.758	68.6778	-74.7288	75.2719	105.27	-36.3937	58.9761	112.822	-35.4069	92.8488	82.0479	-19.8087	86.4029	
173	1.44167	47.8053	-41.5131	97.119	30.6602	-51.9129	67.2334	28.141	-60.2033	29.1767	39.8192	-69.601	4.78999	39.1643	-24.7508	15.4341	30.9503	-35.6863	-6.10943	22.7591	-50.5186	-31.2678	66.6734	-37.1887	3.37612	54.7786	-50.6502	-21.904	47.0778	-70.3774	-48.0691	75.5102	-67.9867	14.3342	56.3129	-91.4802	24.5131	56.2909	-82.2027	61.5233	91.2657	-82.4629	28.1909	66.3155	-95.0967	47.1045	66.1149	-75.0085	75.6461	104.477	-35.2403	61.6444	115.311	-33.255	94.8896	76.9694	-16.5754	87.1258	
174	1.45	46.9697	-39.4652	98.6076	30.9673	-49.121	64.4625	28.6204	-59.1907	33.0634	36.6561	-68.9512	5.55465	40.7121	-24.1926	15.1287	29.2941	-35.0527	-5.62404	20.4561	-50.1364	-32.0391	68.3445	-37.3052	4.903	56.9289	-51.5642	-18.7478	44.6198	-66.6384	-46.9294	75.8407	-68.0034	13.9065	55.0325	-94.2686	27.0325	54.7032	-87.8754	62.2879	88.0798	-82.1512	27.8076	66.0523	-95.2462	48.2534	67.4931	-73.404	74.9014	106.549	-33.1852	59.7185	117.692	-35.9614	94.1998	80.7281	-17.9688	87.5572	
175	1.45833	48.757	-37.2649	96.2125	31.6501	-46.968	63.9864	28.5447	-56.3747	29.4447	37.9108	-67.8696	9.83271	45.0778	-24.6	15.7212	32.0891	-35.086	-7.04426	18.2324	-49.1331	-31.4688	66.9945	-37.4324	4.61412	54.4737	-53.4788	-23.7981	49.0388	-70.5802	-45.1568	74.0484	-71.9575	14.4387	53.2321	-93.8354	26.7596	49.6824	-90.5924	59.1672	85.1012	-86.5056	27.8069	62.7899	-93.5888	49.8552	66.1979	-77.9362	77.3501	111.241	-37.3718	60.1022	116.009	-37.328	94.6194	85.1076	-16.6351	83.7098	
176	1.46667	51.9386	-35.0974	95.2164	33.7905	-43.4958	63.6782	29.4299	-54.2083	27.5122	39.1985	-66.744	7.98199	49.2014	-26.8729	11.5061	32.8898	-34.9012	-8.38153	21.0598	-47.3411	-29.3335	69.7792	-42.3605	0.553678	56.4416	-56.2702	-22.9277	47.9929	-73.9843	-46.4883	70.3055	-72.7735	14.5441	51.8511	-92.3787	25.1474	47.6662	-91.124	64.5203	85.0464	-87.02	28.396	64.2666	-98.6678	51.0109	66.78	-80.393	77.369	110.419	-41.51	54.8259	119.962	-39.1339	93.2324	86.921	-19.3627	81.8521	
177	1.475	52.3351	-31.8959	94.5393	32.5751	-41.7148	62.6455	34.7278	-53.7723	27.5541	32.7688	-66.4788	4.3598	48.8297	-24.5052	10.1504	37.2699	-38.2832	-12.3245	24.4175	-48.8217	-31.6519	74.1819	-43.6025	2.51931	55.7182	-57.7169	-23.9993	45.3848	-76.0959	-49.1966	75.1543	-77.4444	16.3128	51.7866	-96.1201	28.4311	45.3363	-90.2046	64.748	86.8559	-90.4559	30.3569	60.9083	-95.7081	49.055	65.7749	-74.4785	75.8921	113.331	-42.8126	58.6181	123.305	-41.9181	92.1226	91.0146	-17.2736	81.7321	
178	1.48333	57.1498	-29.2306	92.329	36.2632	-38.9461	58.0271	29.545	-51.6075	25.3264	32.7861	-65.4777	3.46961	54.3768	-23.8828	10.5916	40.7869	-35.9326	-11.8471	25.1232	-48.7512	-34.2208	74.2594	-45.3452	1.22558	58.659	-59.0664	-21.6623	43.256	-79.3464	-48.251	69.8876	-77.2544	16.0528	50.5457	-96.2174	30.4435	44.8368	-88.7732	65.2139	83.9283	-88.1522	30.0889	58.3389	-94.2564	50.7837	63.8386	-77.5399	77.9073	112.82	-46.3928	55.6173	124.673	-44.1288	88.1721	95.1543	-20.7819	76.9683	
179	1.49167	59.0305	-23.8806	87.0295	39.2164	-35.3952	59.3873	32.5982	-49.8507	29.9866	34.1734	-65.2449	6.9229	59.1206	-27.4742	3.42248	40.8815	-34.2904	-14.1793	30.6377	-50.2531	-32.4125	77.1767	-47.0041	0.100653	61.6774	-63.995	-21.1351	44.5461	-81.3369	-43.6462	71.5026	-80.1951	16.9892	44.1668	-90.5721	32.4947	42.8361	-81.4137	68.0636	76.6479	-90.2227	31.8065	55.2711	-92.0855	52.49	64.0361	-73.5676	80.2078	115.777	-51.1712	55.5825	125.402	-47.9654	89.8706	99.0095	-19.1071	75.6791	
180	1.5	62.9927	-21.5412	86.6511	38.5272	-30.6633	60.1178	33.4691	-47.7516	26.74	29.1429	-63.4255	4.93917	65.0246	-26.5156	6.23527	46.5561	-37.5294	-17.4406	29.1772	-47.6583	-36.234	76.1545	-50.3036	-1.81248	57.851	-63.7154	-22.4369	40.8505	-82.7662	-43.3898	68.1314	-75.0575	17.4276	40.8936	-89.1489	36.066	41.1036	-77.1554	66.8167	77.8029	-90.3817	33.1479	51.3852	-90.4959	55.8737	63.0146	-72.9928	81.2898	116.886	-54.5918	51.397	127.544	-48.4014	90.5148	103.467	-19.1329	74.1376	
181	1.50833	65.429	-17.1951	82.544	41.8056	-26.8477	55.5088	32.1234	-43.6179	27.8286	30.238	-61.4563	7.19844	66.3317	-25.2428	3.34151	47.7372	-36.6046	-18.846	31.2178	-48.2237	-35.3955	79.3326	-52.6566	-0.629032	58.2122	-66.1032	-22.8255	35.9844	-79.756	-43.889	68.9183	-79.3756	18.2964	39.8758	-86.1373	36.2283	42.4361	-67.2979	66.0908	70.9109	-92.9589	35.2992	48.5112	-85.6127	58.0725	57.5745	-69.2254	80.7592	115.246	-52.8641	55.1352	125.855	-48.5721	87.0884	105.18	-21.8243	72.6078	
